<?xml version="1.0" encoding="utf-8"?>
<!-- Generator: Adobe Illustrator 18.1.1, SVG Export Plug-In . SVG Version: 6.00 Build 0)  -->
<!DOCTYPE svg PUBLIC "-//W3C//DTD SVG 1.1//EN" "http://www.w3.org/Graphics/SVG/1.1/DTD/svg11.dtd">
<svg version="1.1" id="Layer_1" xmlns="http://www.w3.org/2000/svg" xmlns:xlink="http://www.w3.org/1999/xlink" x="0px" y="0px"
	 width="28px" height="28px" viewBox="-481 362 28 28" enable-background="new -481 362 28 28" xml:space="preserve">
<g>
	<polygon fill="#777677" points="-466,369 -468,369 -468,375 -474,375 -474,377 -468,377 -468,383 -466,383 -466,377 -460,377
		-460,375 -466,375 	"/>
	<path fill="#777677" d="M-467,362c-7.7,0-14,6.3-14,14s6.3,14,14,14s14-6.3,14-14S-459.3,362-467,362z M-467,388
		c-6.6,0-12-5.4-12-12s5.4-12,12-12s12,5.4,12,12S-460.4,388-467,388z"/>
</g>
</svg>
