<?xml version="1.0" encoding="utf-8"?>
<!-- Generator: Adobe Illustrator 18.1.1, SVG Export Plug-In . SVG Version: 6.00 Build 0)  -->
<!DOCTYPE svg PUBLIC "-//W3C//DTD SVG 1.1//EN" "http://www.w3.org/Graphics/SVG/1.1/DTD/svg11.dtd">
<svg version="1.1" id="Layer_1" xmlns="http://www.w3.org/2000/svg" xmlns:xlink="http://www.w3.org/1999/xlink" x="0px" y="0px"
	 width="32px" height="32px" viewBox="-483 360 32 32" enable-background="new -483 360 32 32" xml:space="preserve">
<g>
	<path fill="#777677" d="M-467,362c-7.7,0-14,6.3-14,14s6.3,14,14,14s14-6.3,14-14S-459.3,362-467,362z M-467,388
		c-6.6,0-12-5.4-12-12s5.4-12,12-12s12,5.4,12,12S-460.4,388-467,388z"/>
	<polygon fill="#777677" points="-466.3,370.7 -467.7,369.3 -474.4,376 -467.7,382.7 -466.3,381.3 -470.6,377 -459,377 -459,375 
		-470.6,375 	"/>
</g>
</svg>
