<?xml version="1.0" encoding="utf-8"?>
<!-- Generator: Adobe Illustrator 18.1.1, SVG Export Plug-In . SVG Version: 6.00 Build 0)  -->
<!DOCTYPE svg PUBLIC "-//W3C//DTD SVG 1.1//EN" "http://www.w3.org/Graphics/SVG/1.1/DTD/svg11.dtd">
<svg version="1.1" id="Layer_1" xmlns="http://www.w3.org/2000/svg" xmlns:xlink="http://www.w3.org/1999/xlink" x="0px" y="0px"
	 width="104px" height="104.6px" viewBox="0 0 104 104.6" enable-background="new 0 0 104 104.6" xml:space="preserve">
<g>
	<path fill="#ECECEC" d="M52,97.1c-24.5,0-44.5-20-44.5-44.5c0-24.5,20-44.5,44.5-44.5c24.5,0,44.5,20,44.5,44.5
		C96.5,77.1,76.5,97.1,52,97.1z"/>
	<path fill="#C7C7C7" d="M52,10.6c23.2,0,42,18.8,42,42s-18.8,42-42,42c-23.2,0-42-18.8-42-42S28.8,10.6,52,10.6 M52,5.6
		c-26,0-47,21-47,47c0,26,21,47,47,47s47-21,47-47C99,26.7,78,5.6,52,5.6L52,5.6z"/>
</g>
<g>
	<defs>
		<polygon id="SVGID_1_" points="52,52.6 104,52.3 104,104.6 0,104.6 0,0 52,0 		"/>
	</defs>
	<clipPath id="SVGID_2_">
		<use xlink:href="#SVGID_1_"  overflow="visible"/>
	</clipPath>
</g>
</svg>
