<?xml version="1.0" encoding="utf-8"?>
<!-- Generator: Adobe Illustrator 18.1.1, SVG Export Plug-In . SVG Version: 6.00 Build 0)  -->
<!DOCTYPE svg PUBLIC "-//W3C//DTD SVG 1.1//EN" "http://www.w3.org/Graphics/SVG/1.1/DTD/svg11.dtd">
<svg version="1.1" id="Layer_1" xmlns="http://www.w3.org/2000/svg" xmlns:xlink="http://www.w3.org/1999/xlink" x="0px" y="0px"
	 width="104px" height="104.6px" viewBox="-447 323.4 104 104.6" enable-background="new -447 323.4 104 104.6"
	 xml:space="preserve">
<g>
	<path fill="#ECECEC" d="M-395,420.5c-24.5,0-44.5-20-44.5-44.5s20-44.5,44.5-44.5s44.5,20,44.5,44.5S-370.5,420.5-395,420.5z"/>
	<path fill="#C7C7C7" d="M-395,334c23.2,0,42,18.8,42,42c0,23.2-18.8,42-42,42s-42-18.8-42-42S-418.2,334-395,334 M-395,329
		c-26,0-47,21-47,47s21,47,47,47s47-21,47-47C-348,350.1-369,329-395,329L-395,329z"/>
</g>
<g>
	<g>
		<defs>
			<polygon id="SVGID_1_" points="-395,376 -343,428 -343,323.4 -395,323.4 			"/>
		</defs>
		<clipPath id="SVGID_2_">
			<use xlink:href="#SVGID_1_"  overflow="visible"/>
		</clipPath>
		<g clip-path="url(#SVGID_2_)">
			<path fill="#0A6C5D" d="M-395,329c25.9,0,47,21.1,47,47s-21.1,47-47,47s-47-21.1-47-47C-442,350.1-420.9,329-395,329 M-395,324
				c-28.7,0-52,23.3-52,52s23.3,52,52,52s52-23.3,52-52S-366.3,324-395,324L-395,324z"/>
		</g>
	</g>
</g>
</svg>
