<?xml version="1.0" encoding="utf-8"?>
<!-- Generator: Adobe Illustrator 18.1.1, SVG Export Plug-In . SVG Version: 6.00 Build 0)  -->
<!DOCTYPE svg PUBLIC "-//W3C//DTD SVG 1.1//EN" "http://www.w3.org/Graphics/SVG/1.1/DTD/svg11.dtd">
<svg version="1.1" id="Layer_1" xmlns="http://www.w3.org/2000/svg" xmlns:xlink="http://www.w3.org/1999/xlink" x="0px" y="0px"
	 width="32px" height="32px" viewBox="-483 360 32 32" enable-background="new -483 360 32 32" xml:space="preserve">
<path fill="#FFFFFF" d="M-467,362c-7.7,0-14,6.3-14,14s6.3,14,14,14s14-6.3,14-14S-459.3,362-467,362z M-460,376
	c0,0.9-0.2,1.7-0.5,2.5c-0.7,1.8-2.2,3.3-4,4c-0.8,0.3-1.6,0.5-2.5,0.5s-1.7-0.2-2.5-0.5c-1.8-0.7-3.3-2.2-4-4
	c-0.3-0.8-0.5-1.6-0.5-2.5s0.2-1.7,0.5-2.5c0.7-1.8,2.2-3.3,4-4c0.8-0.3,1.6-0.5,2.5-0.5s1.7,0.2,2.5,0.5c1.8,0.7,3.3,2.2,4,4
	C-460.2,374.3-460,375.1-460,376z M-463.7,368.7c-1-0.5-2.1-0.7-3.3-0.7s-2.3,0.3-3.3,0.7l-2.9-2.9c1.8-1.1,3.9-1.8,6.2-1.8
	s4.4,0.7,6.2,1.8L-463.7,368.7z M-474.3,379.3l-2.9,2.9c-1.1-1.8-1.8-3.9-1.8-6.2s0.7-4.4,1.8-6.2l2.9,2.9c-0.5,1-0.7,2.1-0.7,3.3
	S-474.7,378.3-474.3,379.3z M-470.3,383.3c1,0.5,2.1,0.7,3.3,0.7s2.3-0.3,3.3-0.7l2.9,2.9c-1.8,1.1-3.9,1.8-6.2,1.8
	s-4.4-0.7-6.2-1.8L-470.3,383.3z M-459.7,372.7l2.9-2.9c1.1,1.8,1.8,3.9,1.8,6.2s-0.7,4.4-1.8,6.2l-2.9-2.9c0.5-1,0.7-2.1,0.7-3.3
	S-459.3,373.7-459.7,372.7z"/>
</svg>
