<?xml version="1.0" encoding="utf-8"?>
<!-- Generator: Adobe Illustrator 18.1.1, SVG Export Plug-In . SVG Version: 6.00 Build 0)  -->
<!DOCTYPE svg PUBLIC "-//W3C//DTD SVG 1.1//EN" "http://www.w3.org/Graphics/SVG/1.1/DTD/svg11.dtd">
<svg version="1.1" id="Layer_1" xmlns="http://www.w3.org/2000/svg" xmlns:xlink="http://www.w3.org/1999/xlink" x="0px" y="0px"
	 width="32px" height="32px" viewBox="-483 360 32 32" enable-background="new -483 360 32 32" xml:space="preserve">
<g>
	<rect x="-468.6" y="381.4" fill="#777677" width="2.9" height="2.8"/>
	<path fill="#777677" d="M-466.8,368c-3.3,0-5.3,2.1-5.3,5.4h2.5c0-2,0.8-3.3,2.7-3.3c0.8,0,2.2,0.7,2.2,2.4c0,1.5-0.9,2-1.8,2.8
		c-1.2,1-1.7,1.9-1.7,4.5h2.4c0-2.1,0.8-2.8,1.9-3.7c0.9-0.8,1.9-1.6,1.9-3.7C-462,369.6-464.1,368-466.8,368z"/>
	<path fill="#777677" d="M-467,362c-7.7,0-14,6.3-14,14s6.3,14,14,14s14-6.3,14-14S-459.3,362-467,362z M-467,388
		c-6.6,0-12-5.4-12-12s5.4-12,12-12s12,5.4,12,12S-460.4,388-467,388z"/>
</g>
</svg>
