<?xml version="1.0" encoding="utf-8"?>
<!-- Generator: Adobe Illustrator 18.1.1, SVG Export Plug-In . SVG Version: 6.00 Build 0)  -->
<!DOCTYPE svg PUBLIC "-//W3C//DTD SVG 1.1//EN" "http://www.w3.org/Graphics/SVG/1.1/DTD/svg11.dtd">
<svg version="1.1" id="Layer_1" xmlns="http://www.w3.org/2000/svg" xmlns:xlink="http://www.w3.org/1999/xlink" x="0px" y="0px"
	 width="30px" height="60px" viewBox="-1449 1082 30 60" enable-background="new -1449 1082 30 60" xml:space="preserve">
<path fill="#777677" d="M-1419,1094l-11-1l-4-11l-4,11l-11,1l9,7l-3,11l9-7l9,7l-3-11L-1419,1094z M-1432.8,1103.4l-1.2-1l-1.2,1
	l-4.3,3.3l1.4-5.2l0.4-1.3l-1.1-0.8l-5-3.9l6-0.5l1.3-0.1l0.4-1.2l2.1-5.8l2.1,5.8l0.4,1.2l1.3,0.1l6,0.5l-5,3.9l-1.1,0.8l0.4,1.3
	l1.4,5.2L-1432.8,1103.4z"/>
<path fill="#EFC100" d="M-1419,1124l-11-1l-4-11l-4,11l-11,1l9,7l-3,11l9-7l9,7l-3-11L-1419,1124z"/>
</svg>
