<?xml version="1.0" encoding="utf-8"?>
<!-- Generator: Adobe Illustrator 18.1.1, SVG Export Plug-In . SVG Version: 6.00 Build 0)  -->
<!DOCTYPE svg PUBLIC "-//W3C//DTD SVG 1.1//EN" "http://www.w3.org/Graphics/SVG/1.1/DTD/svg11.dtd">
<svg version="1.1" id="Layer_1" xmlns="http://www.w3.org/2000/svg" xmlns:xlink="http://www.w3.org/1999/xlink" x="0px" y="0px"
	 width="32px" height="32px" viewBox="-483 360 32 32" enable-background="new -483 360 32 32" xml:space="preserve">
<g>
	<g>
		<path fill="#FFFFFF" d="M-455.5,376c0-0.6-0.1-1.2-0.2-1.8l3.7-3.2l-3.1-5.1l-4.4,1.4c-1-0.9-2.2-1.6-3.6-2.1l-1-4.2h-6l-1,4.2
			c-1.3,0.5-2.5,1.2-3.6,2.1l-4.4-1.4l-3.1,5.1l3.7,3.2c-0.1,0.6-0.2,1.2-0.2,1.8c0,0.6,0.1,1.2,0.2,1.8l-3.7,3.2l3.1,5.1l4.4-1.4
			c1,0.9,2.2,1.6,3.6,2.1l1,4.2h6l1-4.2c1.3-0.5,2.5-1.2,3.6-2.1l4.4,1.4l3.1-5.1l-3.7-3.2C-455.6,377.2-455.5,376.6-455.5,376z
			 M-454.6,381.4l-1.4,2.3l-2.9-0.9l-1.1-0.4l-0.9,0.7c-0.9,0.8-1.9,1.3-2.9,1.7l-1,0.4l-0.2,1.1l-0.6,2.7h-2.8l-0.6-2.7l-0.2-1.1
			l-1-0.4c-1.1-0.4-2.1-1-2.9-1.7l-0.9-0.7l-1.1,0.4l-2.9,0.9l-1.4-2.3l2.4-2.1l0.8-0.7l-0.2-1.1c-0.1-0.6-0.1-1-0.1-1.5
			c0-0.4,0-0.9,0.1-1.5l0.2-1.1l-0.8-0.7l-2.4-2.1l1.4-2.3l2.9,0.9l1.1,0.4l0.9-0.7c0.9-0.8,1.9-1.3,2.9-1.7l1-0.4l0.2-1.1l0.6-2.7
			h2.8l0.6,2.7l0.2,1.1l1,0.4c1.1,0.4,2.1,1,2.9,1.7l0.9,0.7l1.1-0.4l2.9-0.9l1.4,2.3l-2.4,2.1l-0.8,0.7l0.2,1.1
			c0.1,0.6,0.1,1,0.1,1.5s0,0.9-0.1,1.5l-0.2,1.1l0.8,0.7L-454.6,381.4z"/>
	</g>
	<g>
		<path fill="#FFFFFF" d="M-467,370c-3.3,0-6,2.7-6,6s2.7,6,6,6c3.3,0,6-2.7,6-6S-463.7,370-467,370z M-467,378c-1.1,0-2-0.9-2-2
			s0.9-2,2-2s2,0.9,2,2S-465.9,378-467,378z"/>
	</g>
</g>
</svg>
