<?xml version="1.0" encoding="utf-8"?>
<!-- Generator: Adobe Illustrator 18.1.1, SVG Export Plug-In . SVG Version: 6.00 Build 0)  -->
<!DOCTYPE svg PUBLIC "-//W3C//DTD SVG 1.1//EN" "http://www.w3.org/Graphics/SVG/1.1/DTD/svg11.dtd">
<svg version="1.1" id="Layer_1" xmlns="http://www.w3.org/2000/svg" xmlns:xlink="http://www.w3.org/1999/xlink" x="0px" y="0px"
	 width="104.6px" height="30px" viewBox="-493 361 104.6 30" enable-background="new -493 361 104.6 30" xml:space="preserve">
<path fill="#FFFFFF" d="M-463,373l-11-1l-4-11l-4,11l-11,1l9,7l-3,11l9-7l9,7l-3-11L-463,373z M-476.8,382.4l-1.2-1l-1.2,1l-4.3,3.3
	l1.4-5.2l0.4-1.3l-1.1-0.8l-5-3.9l6-0.5l1.3-0.1l0.4-1.2l2.1-5.8l2.1,5.8l0.4,1.2l1.3,0.1l6,0.5l-5,3.9l-1.1,0.8l0.4,1.3l1.4,5.2
	L-476.8,382.4z"/>
<path fill="#FFFFFF" d="M-425.7,373l-11-1l-4-11l-4,11l-11,1l9,7l-3,11l9-7l9,7l-3-11L-425.7,373z M-439.5,382.4l-1.2-1l-1.2,1
	l-4.3,3.3l1.4-5.2l0.4-1.3l-1.1-0.8l-5-3.9l6-0.5l1.3-0.1l0.4-1.2l2.1-5.8l2.1,5.8l0.4,1.2l1.3,0.1l6,0.5l-5,3.9l-1.1,0.8l0.4,1.3
	l1.4,5.2L-439.5,382.4z"/>
<path fill="#FFFFFF" d="M-388.4,373l-11-1l-4-11l-4,11l-11,1l9,7l-3,11l9-7l9,7l-3-11L-388.4,373z M-402.2,382.4l-1.2-1l-1.2,1
	l-4.3,3.3l1.4-5.2l0.4-1.3l-1.1-0.8l-5-3.9l6-0.5l1.3-0.1l0.4-1.2l2.1-5.8l2.1,5.8l0.4,1.2l1.3,0.1l6,0.5l-5,3.9l-1.1,0.8l0.4,1.3
	l1.4,5.2L-402.2,382.4z"/>
</svg>
