<?xml version="1.0" encoding="utf-8"?>
<!-- Generator: Adobe Illustrator 18.1.1, SVG Export Plug-In . SVG Version: 6.00 Build 0)  -->
<!DOCTYPE svg PUBLIC "-//W3C//DTD SVG 1.1//EN" "http://www.w3.org/Graphics/SVG/1.1/DTD/svg11.dtd">
<svg version="1.1" id="Layer_1" xmlns="http://www.w3.org/2000/svg" xmlns:xlink="http://www.w3.org/1999/xlink" x="0px" y="0px"
	 width="81.6px" height="29.5px" viewBox="-470.5 364.2 81.6 29.5" enable-background="new -470.5 364.2 81.6 29.5"
	 xml:space="preserve">
<g>
	<g>
		<g>
			<path fill="#00B4A0" d="M-450.6,381.6l2.6,9.4l-7.4-5.7l-7.4,5.7l2.6-9.4l-7.1-5.3h8.8l3.2-9.2l3.2,9.2h8.8L-450.6,381.6z"/>
		</g>
	</g>
</g>
<g>
	<g>
		<g>
			<path fill="#00B4A0" d="M-424.8,381.6l2.6,9.4l-7.4-5.7l-7.4,5.7l2.6-9.4l-7.1-5.3h8.8l3.2-9.2l3.2,9.2h8.8L-424.8,381.6z"/>
		</g>
	</g>
</g>
<g>
	<g>
		<g>
			<path fill="#00B4A0" d="M-403.9,373.2l1.4,3.8l0.5,1.3h1.4h2.7l-2.2,1.6l-1.1,0.8l0.4,1.3l1,3.7l-2.7-2.1l-1.2-0.9l-1.2,0.9
				l-2.7,2.1l1-3.7l0.4-1.3l-1.1-0.8l-2.2-1.6h2.7h1.4l0.5-1.3L-403.9,373.2 M-403.9,367.2l-3.2,9.2h-8.8l7.1,5.3l-2.6,9.4l7.4-5.7
				l7.4,5.7l-2.6-9.4l7.1-5.3h-8.8L-403.9,367.2L-403.9,367.2z"/>
		</g>
	</g>
</g>
</svg>
