<?xml version="1.0" encoding="utf-8"?>
<!-- Generator: Adobe Illustrator 18.1.1, SVG Export Plug-In . SVG Version: 6.00 Build 0)  -->
<!DOCTYPE svg PUBLIC "-//W3C//DTD SVG 1.1//EN" "http://www.w3.org/Graphics/SVG/1.1/DTD/svg11.dtd">
<svg version="1.1" id="Layer_1" xmlns="http://www.w3.org/2000/svg" xmlns:xlink="http://www.w3.org/1999/xlink" x="0px" y="0px"
	 width="28px" height="112px" viewBox="-1455 1034 28 112" enable-background="new -1455 1034 28 112" xml:space="preserve">
<path fill="#008571" d="M-1441,1090c-7.7,0-14,6.3-14,14s6.3,14,14,14s14-6.3,14-14S-1433.3,1090-1441,1090z M-1443,1109.4l-4.7-4.7
	l1.4-1.4l3.3,3.3l7.3-7.3l1.4,1.4L-1443,1109.4z"/>
<path fill="#464646" d="M-1441,1062c-7.7,0-14,6.3-14,14s6.3,14,14,14s14-6.3,14-14S-1433.3,1062-1441,1062z M-1443,1081.4l-4.7-4.7
	l1.4-1.4l3.3,3.3l7.3-7.3l1.4,1.4L-1443,1081.4z"/>
<g>
	<path fill="#777677" d="M-1441,1035c7.2,0,13,5.8,13,13s-5.8,13-13,13s-13-5.8-13-13S-1448.2,1035-1441,1035 M-1441,1034
		c-7.7,0-14,6.3-14,14s6.3,14,14,14s14-6.3,14-14S-1433.3,1034-1441,1034L-1441,1034z"/>
</g>
<path fill="#777677" d="M-1443,1053.4l-4.7-4.7l1.4-1.4l3.3,3.3l7.3-7.3l1.4,1.4L-1443,1053.4z"/>
<g>
	<rect x="-1448" y="1131" fill="#E71D32" width="14" height="2"/>
	<path fill="#E71D32" d="M-1441,1118c-7.7,0-14,6.3-14,14s6.3,14,14,14s14-6.3,14-14S-1433.3,1118-1441,1118z M-1441,1144
		c-6.6,0-12-5.4-12-12s5.4-12,12-12s12,5.4,12,12S-1434.4,1144-1441,1144z"/>
</g>
</svg>
