<?xml version="1.0" encoding="utf-8"?>
<!-- Generator: Adobe Illustrator 18.1.1, SVG Export Plug-In . SVG Version: 6.00 Build 0)  -->
<!DOCTYPE svg PUBLIC "-//W3C//DTD SVG 1.1//EN" "http://www.w3.org/Graphics/SVG/1.1/DTD/svg11.dtd">
<svg version="1.1" id="Layer_1" xmlns="http://www.w3.org/2000/svg" xmlns:xlink="http://www.w3.org/1999/xlink" x="0px" y="0px"
	 width="26px" height="26px" viewBox="-479.1 363.4 26 26" enable-background="new -479.1 363.4 26 26" xml:space="preserve">
<g>
	<g>
		<path fill="#777677" d="M-469.2,365.4v7.9h-7.9v-7.9H-469.2 M-467.2,363.4h-11.9v11.9h11.9V363.4L-467.2,363.4z"/>
	</g>
	<g>
		<path fill="#777677" d="M-469.2,379.4v7.9h-7.9v-7.9H-469.2 M-467.2,377.4h-11.9v11.9h11.9V377.4L-467.2,377.4z"/>
	</g>
	<g>
		<path fill="#777677" d="M-455.1,365.4v7.9h-7.9v-7.9H-455.1 M-453.1,363.4h-11.9v11.9h11.9V363.4L-453.1,363.4z"/>
	</g>
	<g>
		<path fill="#777677" d="M-455.1,379.4v7.9h-7.9v-7.9H-455.1 M-453.1,377.4h-11.9v11.9h11.9V377.4L-453.1,377.4z"/>
	</g>
</g>
</svg>
