<?xml version="1.0" encoding="utf-8"?>
<!-- Generator: Adobe Illustrator 18.1.1, SVG Export Plug-In . SVG Version: 6.00 Build 0)  -->
<!DOCTYPE svg PUBLIC "-//W3C//DTD SVG 1.1//EN" "http://www.w3.org/Graphics/SVG/1.1/DTD/svg11.dtd">
<svg version="1.1" id="Layer_1" xmlns="http://www.w3.org/2000/svg" xmlns:xlink="http://www.w3.org/1999/xlink" x="0px" y="0px"
	 width="32px" height="32px" viewBox="-483 360 32 32" enable-background="new -483 360 32 32" xml:space="preserve">
<g>
	<path fill="#FFFFFF" d="M-467,381c5.5,0,10-4.5,10-10s-4.5-10-10-10s-10,4.5-10,10S-472.5,381-467,381z M-467,363c4.4,0,8,3.6,8,8
		s-3.6,8-8,8s-8-3.6-8-8S-471.4,363-467,363z"/>
	<path fill="#FFFFFF" d="M-459,383h-16c-2.2,0-4,1.8-4,4v4h24v-4C-455,384.8-456.8,383-459,383z"/>
</g>
</svg>
